<svg width="16" height="16" viewBox="0 0 16 16" fill="none" xmlns="http://www.w3.org/2000/svg">
<path fill-rule="evenodd" clip-rule="evenodd" d="M8.60606 8.00017L11.8744 4.73211C12.0419 4.56468 12.0419 4.29325 11.8744 4.12582C11.707 3.95839 11.4361 3.95839 11.2686 4.12582L7.99971 7.39388L4.73136 4.12582C4.56392 3.95839 4.29303 3.95839 4.12558 4.12582C3.95814 4.29325 3.95814 4.56468 4.12558 4.73211L7.39393 8.00017L4.12558 11.2682C3.95814 11.4357 3.95814 11.7071 4.12558 11.8745C4.20902 11.958 4.31875 12.0002 4.42847 12.0002C4.5382 12.0002 4.64793 11.958 4.73136 11.8745L7.99971 8.60647L11.2686 11.8745C11.3521 11.958 11.4618 12.0002 11.5715 12.0002C11.6813 12.0002 11.791 11.958 11.8744 11.8745C12.0419 11.7071 12.0419 11.4357 11.8744 11.2682L8.60606 8.00017Z" fill="#D62B1F"/>
</svg>
