<svg width="87" height="112" viewBox="0 0 87 112" fill="none" xmlns="http://www.w3.org/2000/svg">
<path d="M72.8909 57.2763C77.8 58.3647 87.2855 63.5739 84.9033 71.7535C82.9319 78.522 75.0897 77.9357 70.9331 75.4239C67.6943 73.4513 63.4064 68.3016 65.1313 63.2399C66.1039 60.4471 70.0299 57.95 72.8909 57.2763Z" fill="#EFCDBD"/>
<path d="M45.2164 43.1983C58.2838 45.8735 49.9919 63.9634 42.3779 55.7299C39.9326 53.0852 38.2556 50.0083 40.1765 46.356C41.4441 43.9367 43.9456 42.3331 46.0693 43.2279" fill="#EFCDBD"/>
<path d="M42.5758 79.5893C57.1777 85.6249 44.2305 107.629 36.5866 94.8332C32.3078 87.659 37.0252 81.8835 42.5758 79.5893Z" fill="#EFCDBD"/>
<path d="M17.0076 68.986C18.8665 74.0458 19.6527 79.6234 15.1298 82.7483C12.6403 80.49 9.55449 76.0633 10.6359 71.733C11.3217 69.0058 14.9435 65.4876 16.6854 68.1302" fill="#EFCDBD"/>
<path d="M61.0655 21.0572C66.9788 19.6677 74.376 30.0971 65.3737 31.3068C59.6445 32.0986 54.4005 24.6919 61.0655 21.0572Z" fill="#EFCDBD"/>
<path d="M66.3621 98.6295C70.2059 96.396 73.224 98.0468 75.5491 102.717C77.3654 106.379 77.2805 108.502 74.055 110.226C69.2169 112.811 60.4081 101.055 66.3621 98.6295Z" fill="#EFCDBD"/>
<path d="M11.6642 39.4597C13.4447 40.464 18.2961 42.4688 17.1941 45.9586C16.3979 48.4923 14.0796 47.7836 12.6302 47.25C11.0866 46.689 7.95157 45.1544 7.97246 42.4971C7.99253 40.7338 10.257 38.7343 11.5413 39.8663" fill="#EFCDBD"/>
<path d="M30.6141 1.16133C33.6791 2.32989 38.9081 7.67743 36.699 12.3806C34.9477 16.1099 31.9377 14.1708 30.1716 11.7195C27.7789 8.44996 27.1927 3.23939 30.6141 1.16133Z" fill="#EFCDBD"/>
<path d="M4.62581 5.55318C6.81426 6.90852 10.8813 10.7671 10.098 14.4574C9.50498 17.2612 6.78195 18.6392 4.7424 17.4097C1.73044 15.5671 0.636266 7.61142 4.62581 5.55318Z" fill="#EFCDBD"/>
</svg>
