<svg width="222" height="224" viewBox="0 0 222 224" fill="none" xmlns="http://www.w3.org/2000/svg">
<ellipse cx="111" cy="112" rx="111" ry="112" fill="#F9F9F9"/>
<path d="M188.5 109C188.5 150.974 150.369 191.5 109.5 191.5C68.6309 191.5 34 159.974 34 118C34 76.0264 78.6309 32 119.5 32C160.369 32 188.5 67.0264 188.5 109Z" fill="#D8E8E2"/>
<mask id="mask0_7811_98660" style="mask-type:alpha" maskUnits="userSpaceOnUse" x="34" y="32" width="155" height="160">
<path d="M188.5 109C188.5 150.974 150.369 191.5 109.5 191.5C68.6309 191.5 34 159.974 34 118C34 76.0264 78.6309 32 119.5 32C160.369 32 188.5 67.0264 188.5 109Z" fill="#D8E8E2"/>
</mask>
<g mask="url(#mask0_7811_98660)">
<path d="M164.315 192H63.6848C61.8646 192 60.5727 189.418 61.1315 186.896L77.1293 114.706C77.4867 113.093 78.5182 112 79.6826 112H148.317C149.482 112 150.513 113.093 150.871 114.706L166.868 186.896C167.427 189.418 166.135 192 164.315 192Z" fill="#CBDAD5"/>
<path d="M166.865 186.896L150.5 114.706C150.134 113.093 149.079 112 147.888 112H138L156.136 192H164.253C166.115 192 167.437 189.418 166.865 186.896Z" fill="#B9D1C9"/>
<path d="M113.854 140.72C118.844 140.72 122.889 138.019 122.889 134.687C122.889 131.355 118.844 128.654 113.854 128.654C108.865 128.654 104.82 131.355 104.82 134.687C104.82 138.019 108.865 140.72 113.854 140.72Z" fill="#D0715D"/>
<path d="M113.854 57C97.6724 57 84.5547 70.1177 84.5547 86.2992C84.5547 107.123 108.235 130.338 113.018 134.814C113.489 135.255 114.219 135.255 114.69 134.814C119.473 130.338 143.153 107.123 143.153 86.2992C143.153 70.1177 130.035 57 113.854 57ZM113.854 100.079C105.31 100.079 98.3844 93.1536 98.3844 84.6099C98.3844 76.0663 105.31 69.1404 113.854 69.1404C122.398 69.1404 129.323 76.0663 129.323 84.6099C129.323 93.1536 122.398 100.079 113.854 100.079Z" fill="#286044"/>
<path d="M112.86 57.0185C112.716 57.0232 112.572 57.0279 112.429 57.0348C112.311 57.0404 112.194 57.0479 112.076 57.055C111.961 57.0619 111.846 57.0685 111.732 57.0769C111.599 57.0866 111.466 57.0975 111.333 57.1089C111.238 57.1171 111.142 57.1253 111.047 57.1343C110.901 57.1482 110.755 57.1633 110.609 57.1796C110.532 57.1882 110.454 57.197 110.376 57.2062C110.217 57.2252 110.058 57.2449 109.9 57.2664C109.841 57.2744 109.781 57.2829 109.722 57.2913C109.549 57.3158 109.377 57.3412 109.205 57.3685C109.167 57.3745 109.13 57.3809 109.092 57.3871C108.902 57.4183 108.711 57.4507 108.521 57.4855C122.157 59.993 132.489 71.9387 132.489 86.2992C132.489 99.8614 122.445 120.408 114.119 135.113C114.325 135.067 114.523 134.97 114.688 134.815C114.714 134.791 114.739 134.768 114.766 134.743C114.8 134.71 114.835 134.678 114.872 134.643C114.922 134.596 114.976 134.545 115.03 134.494C115.069 134.457 115.108 134.42 115.15 134.38C115.21 134.323 115.273 134.263 115.337 134.202C115.375 134.166 115.412 134.131 115.451 134.093C115.53 134.017 115.614 133.937 115.698 133.856C115.728 133.827 115.755 133.801 115.786 133.772C115.901 133.66 116.021 133.544 116.146 133.423C116.169 133.4 116.195 133.375 116.219 133.352C116.32 133.253 116.423 133.153 116.529 133.048C116.576 133.002 116.625 132.953 116.673 132.906C116.76 132.82 116.848 132.734 116.938 132.645C116.993 132.59 117.051 132.533 117.107 132.477C117.195 132.389 117.283 132.301 117.373 132.211C117.433 132.151 117.495 132.089 117.556 132.027C117.646 131.937 117.736 131.846 117.828 131.753C117.894 131.687 117.96 131.621 118.026 131.553C118.119 131.459 118.212 131.364 118.307 131.267C118.376 131.197 118.445 131.126 118.515 131.055C118.611 130.955 118.71 130.854 118.809 130.752C118.879 130.68 118.949 130.608 119.02 130.534C119.126 130.425 119.234 130.312 119.342 130.199C119.409 130.129 119.474 130.061 119.542 129.99C119.674 129.852 119.808 129.711 119.943 129.568C119.989 129.52 120.034 129.473 120.08 129.424C120.263 129.23 120.448 129.033 120.635 128.833C120.679 128.786 120.724 128.737 120.768 128.69C120.912 128.536 121.056 128.38 121.203 128.221C121.273 128.145 121.344 128.067 121.415 127.99C121.538 127.856 121.661 127.722 121.786 127.585C121.865 127.499 121.945 127.41 122.024 127.323C122.143 127.192 122.261 127.061 122.381 126.928C122.465 126.834 122.55 126.74 122.635 126.645C122.753 126.513 122.871 126.381 122.99 126.247C123.076 126.15 123.163 126.052 123.25 125.954C123.371 125.817 123.492 125.679 123.614 125.539C123.7 125.442 123.786 125.344 123.872 125.245C123.998 125.1 124.125 124.954 124.252 124.807C124.335 124.71 124.419 124.614 124.503 124.516C124.638 124.359 124.774 124.199 124.91 124.039C124.987 123.949 125.064 123.859 125.141 123.768C125.305 123.574 125.47 123.377 125.636 123.179C125.685 123.12 125.734 123.063 125.783 123.003C125.997 122.747 126.213 122.486 126.428 122.224C126.487 122.152 126.546 122.079 126.605 122.007C126.763 121.814 126.92 121.621 127.078 121.425C127.159 121.324 127.241 121.222 127.322 121.121C127.458 120.952 127.594 120.782 127.73 120.61C127.82 120.498 127.909 120.384 127.998 120.271C128.127 120.107 128.257 119.942 128.386 119.777C128.478 119.658 128.57 119.539 128.663 119.42C128.79 119.256 128.917 119.091 129.043 118.925C129.136 118.804 129.229 118.683 129.321 118.561C129.449 118.393 129.576 118.224 129.703 118.054C129.795 117.932 129.886 117.811 129.977 117.688C130.108 117.513 130.238 117.336 130.368 117.16C130.455 117.041 130.542 116.923 130.629 116.804C130.767 116.613 130.906 116.421 131.044 116.229C131.121 116.122 131.199 116.015 131.276 115.906C131.45 115.663 131.623 115.417 131.795 115.171C131.836 115.113 131.877 115.056 131.918 114.997C132.13 114.693 132.342 114.386 132.552 114.078C132.613 113.988 132.674 113.896 132.735 113.806C132.883 113.587 133.032 113.367 133.179 113.145C133.258 113.026 133.337 112.905 133.416 112.786C133.544 112.591 133.671 112.396 133.798 112.2C133.882 112.07 133.966 111.939 134.049 111.809C134.17 111.621 134.29 111.432 134.409 111.243C134.495 111.107 134.579 110.971 134.664 110.835C134.78 110.648 134.896 110.461 135.011 110.273C135.095 110.135 135.179 109.997 135.262 109.859C135.377 109.669 135.491 109.478 135.604 109.287C135.685 109.15 135.766 109.014 135.847 108.877C135.962 108.679 136.076 108.481 136.19 108.283C136.265 108.151 136.341 108.019 136.416 107.887C136.538 107.672 136.658 107.456 136.777 107.24C136.841 107.123 136.907 107.008 136.97 106.891C137.126 106.605 137.28 106.319 137.432 106.031C137.457 105.983 137.483 105.936 137.508 105.888C137.684 105.553 137.857 105.217 138.027 104.88C138.079 104.777 138.13 104.673 138.181 104.57C138.298 104.335 138.415 104.1 138.529 103.864C138.592 103.734 138.653 103.603 138.715 103.473C138.815 103.263 138.914 103.052 139.011 102.841C139.076 102.7 139.14 102.559 139.203 102.418C139.295 102.216 139.385 102.014 139.474 101.812C139.538 101.666 139.6 101.521 139.663 101.375C139.749 101.175 139.834 100.974 139.917 100.773C139.977 100.627 140.037 100.481 140.097 100.335C140.179 100.132 140.259 99.9289 140.338 99.7254C140.395 99.5813 140.451 99.4373 140.506 99.2929C140.586 99.0828 140.663 98.8725 140.74 98.6622C140.79 98.5249 140.841 98.3878 140.89 98.2503C140.971 98.0209 141.049 97.791 141.127 97.5613C141.167 97.4427 141.209 97.3246 141.248 97.206C141.352 96.8891 141.452 96.572 141.549 96.2544C141.559 96.2228 141.569 96.1915 141.579 96.1601C141.684 95.8118 141.784 95.4634 141.88 95.1147C141.91 95.0043 141.937 94.8938 141.967 94.7834C142.03 94.5449 142.093 94.3062 142.152 94.0675C142.185 93.9322 142.216 93.7968 142.247 93.6613C142.298 93.4469 142.347 93.2324 142.394 93.018C142.425 92.8741 142.454 92.7304 142.483 92.5864C142.525 92.3797 142.566 92.173 142.605 91.9666C142.632 91.8192 142.658 91.6718 142.683 91.5247C142.719 91.321 142.752 91.1173 142.783 90.9136C142.806 90.7658 142.828 90.6182 142.849 90.4706C142.878 90.2655 142.904 90.0603 142.929 89.8551C142.946 89.7105 142.964 89.5659 142.979 89.4216C143.002 89.2093 143.021 88.9972 143.039 88.7852C143.051 88.6492 143.064 88.513 143.074 88.377C143.091 88.1441 143.103 87.9116 143.114 87.6794C143.12 87.5649 143.128 87.4502 143.132 87.3359C143.145 86.9897 143.152 86.6441 143.152 86.2992C143.152 70.1177 130.035 57 113.853 57C113.613 57 113.374 57.0034 113.135 57.009C113.043 57.0114 112.952 57.0155 112.86 57.0185Z" fill="#314B3E" fill-opacity="0.87"/>
<path d="M113.855 140.718C113.418 140.718 112.99 140.696 112.571 140.657C112.57 140.677 112.568 140.697 112.568 140.718V147.758H82.0358C81.2409 147.758 80.5455 148.293 80.3405 149.061L75.5527 166.999H79.1849L83.3838 151.268H114.322C115.291 151.268 116.077 150.482 116.077 149.513V140.718C116.077 140.656 116.073 140.595 116.067 140.535C115.359 140.654 114.618 140.718 113.855 140.718Z" fill="#286044"/>
</g>
<g filter="url(#filter0_d_7811_98660)">
<circle cx="67" cy="58" r="27" fill="#D0715D"/>
</g>
<path d="M58.9727 69.9999H75.0272C76.4125 69.9999 77.6742 69.2963 78.4033 68.1175C79.1318 66.9385 79.1972 65.4941 78.5776 64.2545L70.5504 48.1946C69.8736 46.8407 68.5132 45.9998 66.9995 46C65.4868 46 64.1265 46.841 63.4502 48.1946L55.4224 64.2545C54.8028 65.4942 54.8682 66.9385 55.5967 68.1175C56.3258 69.2963 57.5876 69.9999 58.9728 69.9999H58.9727ZM57.2115 65.1486L65.2387 49.0888C65.5796 48.4072 66.2374 48.0002 66.9995 48.0002C67.7612 48 68.42 48.407 68.7607 49.0888L76.7879 65.1486C77.0956 65.7641 77.0633 66.481 76.7015 67.0662C76.3343 67.6596 75.724 68.0001 75.0267 68.0001L58.9722 67.9999C58.2749 67.9999 57.6645 67.6597 57.2974 67.0659C56.9356 66.4808 56.9034 65.7641 57.211 65.1486L57.2115 65.1486Z" fill="white"/>
<path d="M67.0003 61.3084C67.5526 61.3084 68.0004 60.8605 68.0004 60.3083L68.0002 52.3673C68.0002 51.815 67.5523 51.3672 67.0001 51.3672C66.4478 51.3672 66 51.815 66 52.3673V60.3083C66.0002 60.8606 66.448 61.3084 67.0003 61.3084H67.0003Z" fill="white"/>
<path d="M67.0001 66.3994C67.5524 66.3994 68.0002 65.9515 68.0002 65.3993V64.2774C68.0002 63.7252 67.5523 63.2773 67.0001 63.2773C66.4478 63.2773 66 63.7252 66 64.2774V65.3993C66 65.9516 66.4478 66.3994 67.0001 66.3994Z" fill="white"/>
<g clip-path="url(#clip0_7811_98660)">
<path d="M104.015 150.128L88.3221 157.07C88.2082 157.12 88.0818 157.135 87.9595 157.112C87.8372 157.089 87.7247 157.029 87.6367 156.941L87.6062 156.911C87.5206 156.811 87.4691 156.686 87.4592 156.555C87.4493 156.424 87.4816 156.293 87.5514 156.181L91.7358 149.528L87.574 142.865C87.5066 142.753 87.4766 142.622 87.4883 142.492C87.5 142.361 87.5528 142.238 87.6391 142.14C87.7253 142.041 87.8406 141.973 87.9682 141.944C88.0959 141.916 88.2294 141.928 88.3494 141.98L104.019 148.993C104.13 149.041 104.224 149.12 104.29 149.221C104.357 149.322 104.392 149.441 104.391 149.562C104.391 149.683 104.355 149.801 104.289 149.901C104.222 150.002 104.127 150.081 104.015 150.128Z" fill="#C5A363"/>
</g>
<defs>
<filter id="filter0_d_7811_98660" x="30" y="29" width="74" height="74" filterUnits="userSpaceOnUse" color-interpolation-filters="sRGB">
<feFlood flood-opacity="0" result="BackgroundImageFix"/>
<feColorMatrix in="SourceAlpha" type="matrix" values="0 0 0 0 0 0 0 0 0 0 0 0 0 0 0 0 0 0 127 0" result="hardAlpha"/>
<feOffset dy="8"/>
<feGaussianBlur stdDeviation="5"/>
<feComposite in2="hardAlpha" operator="out"/>
<feColorMatrix type="matrix" values="0 0 0 0 0 0 0 0 0 0 0 0 0 0 0 0 0 0 0.1 0"/>
<feBlend mode="normal" in2="BackgroundImageFix" result="effect1_dropShadow_7811_98660"/>
<feBlend mode="normal" in="SourceGraphic" in2="effect1_dropShadow_7811_98660" result="shape"/>
</filter>
<clipPath id="clip0_7811_98660">
<rect width="19.7648" height="19.7648" fill="white" transform="translate(92.0137 136) rotate(45.1534)"/>
</clipPath>
</defs>
</svg>
