<svg width="18" height="28" viewBox="0 0 18 28" fill="none" xmlns="http://www.w3.org/2000/svg">
<path fill-rule="evenodd" clip-rule="evenodd" d="M3.25425 14.3684C3.38525 13.6771 3.73531 13.0485 4.23949 12.5719V15.128C4.23949 15.3327 4.35177 15.5199 4.53121 15.6157L4.62257 15.663C4.63028 15.6674 4.63799 15.6707 4.64459 15.674C6.69653 16.6493 8.95983 16.6548 11.0184 15.6938C11.0767 15.6663 11.1967 15.5617 11.2429 15.5144C11.3442 15.4109 11.4004 15.2722 11.4004 15.128V12.5719C11.9034 13.0474 12.2546 13.6771 12.3856 14.3684L14.0126 23.0055C13.6295 23.7023 11.7724 26.6493 7.79296 26.6493C3.82778 26.6493 2.00921 23.7199 1.62612 23.0077L3.25425 14.3684ZM15.0892 23.3203C15.1365 23.2157 15.1519 23.1001 15.1299 22.9867L13.4665 14.1637C13.2123 12.814 12.325 11.6406 11.0954 11.0296C10.9247 10.9449 10.7244 10.9537 10.5604 11.0538C10.3986 11.154 10.2995 11.3312 10.2995 11.5217V14.8076C8.67136 15.4968 6.96619 15.4868 5.34027 14.7812V11.5217C5.34027 11.3312 5.2412 11.154 5.07827 11.0538C4.91755 10.9537 4.7139 10.9438 4.54438 11.0296C3.31476 11.6417 2.42749 12.814 2.1732 14.1637L0.509858 22.9867C0.487841 23.1001 0.503253 23.2157 0.550588 23.3203C0.634251 23.5008 2.65756 27.75 7.84685 27.75C12.9811 27.75 15.0055 23.5008 15.0892 23.3203ZM5.63424 3.85323C6.92772 2.56307 9.03141 2.55977 10.3249 3.85323C11.6184 5.14669 11.6184 7.24925 10.3249 8.54271C9.07214 9.79655 6.88919 9.79765 5.63424 8.54271C4.34076 7.24925 4.34076 5.14669 5.63424 3.85323ZM11.1031 9.32113C12.8248 7.59943 12.8248 4.79782 11.1031 3.07502C9.3792 1.35333 6.57759 1.35333 4.8559 3.07502C3.1342 4.79782 3.1342 7.59943 4.8559 9.32113C5.71675 10.182 6.8484 10.6135 7.97895 10.6135C9.1106 10.6135 10.2423 10.182 11.1031 9.32113ZM11.9882 17.7853C12.2744 17.6874 12.4285 17.3736 12.3294 17.0863C12.2315 16.799 11.9177 16.6438 11.6304 16.744C10.4503 17.1469 9.20971 17.3527 7.94266 17.3527C7.63773 17.3527 7.39225 17.5993 7.39225 17.9031C7.39225 18.2069 7.63773 18.4535 7.94266 18.4535C9.3319 18.4535 10.6925 18.2289 11.9882 17.7853ZM13.3091 10.336C14.4804 9.16475 15.1266 7.60598 15.1266 5.94814C15.1266 4.29029 14.4804 2.73152 13.3091 1.56025C13.0934 1.34558 12.7455 1.34558 12.5308 1.56025C12.3151 1.77601 12.3151 2.12387 12.5308 2.33853C13.4952 3.30175 14.0258 4.58311 14.0258 5.94814C14.0258 7.31206 13.4952 8.59452 12.5308 9.55775C12.3151 9.77241 12.3151 10.1214 12.5308 10.336C12.6376 10.4439 12.7785 10.4967 12.9194 10.4967C13.0603 10.4967 13.2012 10.4439 13.3091 10.336ZM14.4518 11.8783C14.3109 11.8783 14.17 11.8243 14.0621 11.7175C13.8475 11.5018 13.8475 11.1539 14.0621 10.9392C15.3644 9.63698 16.081 7.90539 16.081 6.06371C16.081 4.22204 15.3644 2.49155 14.0621 1.18928C13.8475 0.974616 13.8475 0.626756 14.0621 0.410995C14.2779 0.196335 14.6257 0.196335 14.8404 0.410995C16.3507 1.92022 17.1819 3.92922 17.1819 6.06371C17.1819 8.19931 16.3507 10.2083 14.8404 11.7175C14.7336 11.8243 14.5927 11.8783 14.4518 11.8783Z" fill="#00754A"/>
</svg>
