<svg width="24" height="24" viewBox="0 0 24 24" fill="none" xmlns="http://www.w3.org/2000/svg">
<path fill-rule="evenodd" clip-rule="evenodd" d="M9.91477 2.61098C9.95842 2.26193 10.2551 2 10.6069 2H13.3971C13.7488 2 14.0455 2.26191 14.0892 2.61094L14.4136 5.20366C14.6477 5.28676 14.8771 5.3819 15.1009 5.48863L17.1638 3.88448C17.4414 3.66854 17.8365 3.69315 18.0852 3.94189L20.0581 5.91481C20.3068 6.16355 20.3315 6.55856 20.1155 6.83624L18.5114 8.8991C18.618 9.12274 18.7131 9.35191 18.7961 9.58578L21.3892 9.91082C21.7382 9.95456 22 10.2512 22 10.6029V13.3931C22 13.7449 21.7381 14.0416 21.389 14.0852L18.7964 14.4094C18.7133 14.6436 18.6181 14.873 18.5114 15.0969L20.1155 17.1598C20.3315 17.4375 20.3068 17.8325 20.0581 18.0812L18.0852 20.0541C17.8365 20.3029 17.4414 20.3275 17.1638 20.1115L15.1009 18.5074C14.8771 18.6141 14.6477 18.7093 14.4136 18.7924L14.0892 21.3851C14.0455 21.7341 13.7488 21.996 13.3971 21.996H10.6069C10.2551 21.996 9.95842 21.7341 9.91477 21.385L9.59056 18.7924C9.36007 18.7106 9.13415 18.6171 8.91358 18.5124L6.84412 20.1212C6.56644 20.3371 6.17147 20.3124 5.92277 20.0637L3.94984 18.0908C3.70112 17.8421 3.6765 17.4471 3.89241 17.1694L5.49688 15.1059C5.39009 14.8827 5.29484 14.654 5.21156 14.4206L2.61083 14.0948C2.26184 14.0511 2 13.7544 2 13.4027V10.6125C2 10.2608 2.26192 9.96406 2.61096 9.9204L5.20424 9.59602C5.28814 9.35859 5.38441 9.126 5.49261 8.8991L3.88846 6.83624C3.67252 6.55856 3.69713 6.16355 3.94586 5.91481L5.91879 3.94189C6.16755 3.69313 6.56261 3.66854 6.84029 3.88453L8.90274 5.48879C9.05208 5.41757 9.20388 5.35152 9.3579 5.29076L9.59056 5.2036L9.91477 2.61098ZM12.7814 3.39507H11.2227L10.9195 5.81903C10.8848 6.09716 10.6869 6.32746 10.4171 6.40371C9.98082 6.52704 9.56171 6.70113 9.16729 6.92192C8.9226 7.0589 8.61966 7.03602 8.39831 6.86384L6.46982 5.36378L5.36771 6.4659L6.86767 8.39477C7.03979 8.6161 7.06265 8.91898 6.92571 9.16364C6.70361 9.56047 6.52877 9.98229 6.40534 10.4215C6.3294 10.6917 6.0989 10.8901 5.8204 10.9249L3.39507 11.2283V12.7871L5.82633 13.0917C6.10395 13.1264 6.33392 13.3237 6.41051 13.5928C6.53443 14.0282 6.70891 14.4464 6.9299 14.8398C7.06737 15.0846 7.04471 15.388 6.87238 15.6096L5.37165 17.5397L6.47392 18.642L8.40874 17.1378C8.62972 16.966 8.93198 16.943 9.17647 17.0792C9.56821 17.2976 9.98421 17.4699 10.4171 17.5923C10.6869 17.6686 10.8848 17.8989 10.9195 18.177L11.2227 20.601H12.7814L13.0846 18.1769C13.1194 17.8988 13.3173 17.6685 13.587 17.5923C14.0232 17.469 14.4421 17.295 14.8364 17.0743C15.081 16.9373 15.3839 16.9602 15.6052 17.1323L17.5341 18.6323L18.6363 17.5301L17.1363 15.6013C16.9642 15.3799 16.9413 15.077 17.0783 14.8324C17.299 14.4381 17.473 14.0191 17.5963 13.5829C17.6725 13.3131 17.9028 13.1152 18.181 13.0805L20.6049 12.7773V11.2185L18.1805 10.9146C17.9025 10.8798 17.6723 10.6819 17.5961 10.4123C17.4728 9.97643 17.2988 9.55771 17.0783 9.16364C16.9413 8.91898 16.9642 8.6161 17.1363 8.39477L18.6363 6.4659L17.5341 5.36373L15.6052 6.86369C15.3839 7.03581 15.081 7.05867 14.8364 6.92174C14.4421 6.70107 14.0232 6.52705 13.587 6.40376C13.3173 6.32751 13.1194 6.09724 13.0846 5.81913L12.7814 3.39507ZM16 12C16 14.2091 14.2091 16 12 16C9.79086 16 8 14.2091 8 12C8 9.79086 9.79086 8 12 8C14.2091 8 16 9.79086 16 12ZM14.5 12C14.5 13.3807 13.3807 14.5 12 14.5C10.6193 14.5 9.5 13.3807 9.5 12C9.5 10.6193 10.6193 9.5 12 9.5C13.3807 9.5 14.5 10.6193 14.5 12Z" fill="black" fill-opacity="0.87"/>
<mask id="mask0_4761_28232" style="mask-type:alpha" maskUnits="userSpaceOnUse" x="2" y="2" width="20" height="20">
<path fill-rule="evenodd" clip-rule="evenodd" d="M9.91477 2.61098C9.95842 2.26193 10.2551 2 10.6069 2H13.3971C13.7488 2 14.0455 2.26191 14.0892 2.61094L14.4136 5.20366C14.6477 5.28676 14.8771 5.3819 15.1009 5.48863L17.1638 3.88448C17.4414 3.66854 17.8365 3.69315 18.0852 3.94189L20.0581 5.91481C20.3068 6.16355 20.3315 6.55856 20.1155 6.83624L18.5114 8.8991C18.618 9.12274 18.7131 9.35191 18.7961 9.58578L21.3892 9.91082C21.7382 9.95456 22 10.2512 22 10.6029V13.3931C22 13.7449 21.7381 14.0416 21.389 14.0852L18.7964 14.4094C18.7133 14.6436 18.6181 14.873 18.5114 15.0969L20.1155 17.1598C20.3315 17.4375 20.3068 17.8325 20.0581 18.0812L18.0852 20.0541C17.8365 20.3029 17.4414 20.3275 17.1638 20.1115L15.1009 18.5074C14.8771 18.6141 14.6477 18.7093 14.4136 18.7924L14.0892 21.3851C14.0455 21.7341 13.7488 21.996 13.3971 21.996H10.6069C10.2551 21.996 9.95842 21.7341 9.91477 21.385L9.59056 18.7924C9.36007 18.7106 9.13415 18.6171 8.91358 18.5124L6.84412 20.1212C6.56644 20.3371 6.17147 20.3124 5.92277 20.0637L3.94984 18.0908C3.70112 17.8421 3.6765 17.4471 3.89241 17.1694L5.49688 15.1059C5.39009 14.8827 5.29484 14.654 5.21156 14.4206L2.61083 14.0948C2.26184 14.0511 2 13.7544 2 13.4027V10.6125C2 10.2608 2.26192 9.96406 2.61096 9.9204L5.20424 9.59602C5.28814 9.35859 5.38441 9.126 5.49261 8.8991L3.88846 6.83624C3.67252 6.55856 3.69713 6.16355 3.94586 5.91481L5.91879 3.94189C6.16755 3.69313 6.56261 3.66854 6.84029 3.88453L8.90274 5.48879C9.05208 5.41757 9.20388 5.35152 9.3579 5.29076L9.59056 5.2036L9.91477 2.61098ZM12.7814 3.39507H11.2227L10.9195 5.81903C10.8848 6.09716 10.6869 6.32746 10.4171 6.40371C9.98082 6.52704 9.56171 6.70113 9.16729 6.92192C8.9226 7.0589 8.61966 7.03602 8.39831 6.86384L6.46982 5.36378L5.36771 6.4659L6.86767 8.39477C7.03979 8.6161 7.06265 8.91898 6.92571 9.16364C6.70361 9.56047 6.52877 9.98229 6.40534 10.4215C6.3294 10.6917 6.0989 10.8901 5.8204 10.9249L3.39507 11.2283V12.7871L5.82633 13.0917C6.10395 13.1264 6.33392 13.3237 6.41051 13.5928C6.53443 14.0282 6.70891 14.4464 6.9299 14.8398C7.06737 15.0846 7.04471 15.388 6.87238 15.6096L5.37165 17.5397L6.47392 18.642L8.40874 17.1378C8.62972 16.966 8.93198 16.943 9.17647 17.0792C9.56821 17.2976 9.98421 17.4699 10.4171 17.5923C10.6869 17.6686 10.8848 17.8989 10.9195 18.177L11.2227 20.601H12.7814L13.0846 18.1769C13.1194 17.8988 13.3173 17.6685 13.587 17.5923C14.0232 17.469 14.4421 17.295 14.8364 17.0743C15.081 16.9373 15.3839 16.9602 15.6052 17.1323L17.5341 18.6323L18.6363 17.5301L17.1363 15.6013C16.9642 15.3799 16.9413 15.077 17.0783 14.8324C17.299 14.4381 17.473 14.0191 17.5963 13.5829C17.6725 13.3131 17.9028 13.1152 18.181 13.0805L20.6049 12.7773V11.2185L18.1805 10.9146C17.9025 10.8798 17.6723 10.6819 17.5961 10.4123C17.4728 9.97643 17.2988 9.55771 17.0783 9.16364C16.9413 8.91898 16.9642 8.6161 17.1363 8.39477L18.6363 6.4659L17.5341 5.36373L15.6052 6.86369C15.3839 7.03581 15.081 7.05867 14.8364 6.92174C14.4421 6.70107 14.0232 6.52705 13.587 6.40376C13.3173 6.32751 13.1194 6.09724 13.0846 5.81913L12.7814 3.39507ZM16 12C16 14.2091 14.2091 16 12 16C9.79086 16 8 14.2091 8 12C8 9.79086 9.79086 8 12 8C14.2091 8 16 9.79086 16 12ZM14.5 12C14.5 13.3807 13.3807 14.5 12 14.5C10.6193 14.5 9.5 13.3807 9.5 12C9.5 10.6193 10.6193 9.5 12 9.5C13.3807 9.5 14.5 10.6193 14.5 12Z" fill="white"/>
</mask>
<g mask="url(#mask0_4761_28232)">
</g>
</svg>
