<svg width="20" height="20" viewBox="0 0 20 20" fill="none" xmlns="http://www.w3.org/2000/svg">
<path fill-rule="evenodd" clip-rule="evenodd" d="M6.82184 1.32856C6.76516 1.32374 6.70839 1.32113 6.65126 1.32065C6.59322 1.32114 6.53558 1.32383 6.47801 1.32879C6.40233 1.34246 6.32734 1.36007 6.25403 1.38345C6.22437 1.3929 6.19478 1.40266 6.16549 1.41321C6.14921 1.42051 6.1326 1.42814 6.12174 1.43368C6.03721 1.47681 5.95475 1.52446 5.87726 1.57931C5.86683 1.58807 5.85651 1.59694 5.84626 1.60593C5.81562 1.63324 5.78516 1.66083 5.75629 1.69005C5.72023 1.72658 5.68471 1.7637 5.65167 1.80297C5.64952 1.80553 5.64748 1.80794 5.64556 1.8102C5.64441 1.81187 5.64321 1.81361 5.64197 1.81542C5.58927 1.89183 5.54014 1.97097 5.49904 2.05424C5.49323 2.066 5.48743 2.07776 5.48173 2.08958C5.46628 2.13134 5.45168 2.17343 5.43947 2.21625C5.42113 2.28059 5.40592 2.34534 5.39373 2.41083C5.3841 2.52582 5.38418 2.64074 5.39395 2.75573C5.40765 2.83078 5.42525 2.90513 5.44861 2.97783C5.4581 3.0074 5.46789 3.03691 5.47849 3.06612C5.4858 3.08233 5.49346 3.09886 5.49901 3.10966C5.54229 3.1939 5.59011 3.27607 5.64514 3.3533C5.65393 3.36369 5.66284 3.37398 5.67186 3.38419C5.69926 3.41472 5.72695 3.44508 5.75627 3.47382C5.79292 3.50976 5.83017 3.54514 5.86957 3.57808C5.87214 3.58023 5.87456 3.58226 5.87684 3.58418C5.87851 3.58532 5.88026 3.58651 5.88207 3.58775C5.95874 3.64027 6.03816 3.68923 6.12172 3.73019C6.13351 3.73597 6.14532 3.74176 6.15717 3.74744C6.19908 3.76284 6.24132 3.77738 6.28429 3.78955C6.3489 3.80783 6.4139 3.823 6.47966 3.83515C6.59498 3.84474 6.71022 3.84467 6.82553 3.83493C6.90088 3.82128 6.97552 3.80373 7.04851 3.78045C7.07818 3.77099 7.10779 3.76123 7.1371 3.75067C7.15337 3.74338 7.16996 3.73575 7.18079 3.73021C7.26533 3.68709 7.34778 3.63944 7.42528 3.58459C7.4357 3.57583 7.44603 3.56696 7.45627 3.55797C7.48692 3.53066 7.51737 3.50307 7.54622 3.47385C7.58229 3.43734 7.61778 3.40022 7.65084 3.36096C7.653 3.35839 7.65504 3.35598 7.65696 3.35372C7.65811 3.35204 7.6593 3.35031 7.66054 3.3485C7.71324 3.2721 7.76237 3.19298 7.80348 3.10968C7.80926 3.09796 7.81505 3.08623 7.82074 3.07445C7.83619 3.03265 7.85082 2.99053 7.86302 2.94767C7.88137 2.88329 7.89659 2.81851 7.90878 2.75297C7.9184 2.63806 7.91833 2.52321 7.90855 2.4083C7.89486 2.33321 7.87725 2.25882 7.85388 2.18609C7.8444 2.15654 7.83461 2.12705 7.82402 2.09785C7.8167 2.08163 7.80904 2.06508 7.80348 2.05426C7.7602 1.97002 7.71238 1.88785 7.65735 1.81062C7.64856 1.80024 7.63965 1.78995 7.63063 1.77974C7.60323 1.7492 7.57554 1.71885 7.54622 1.69008C7.50959 1.65414 7.47234 1.61874 7.43294 1.58582C7.43037 1.58367 7.42795 1.58164 7.42567 1.57972C7.424 1.57858 7.42225 1.57739 7.42044 1.57615C7.34377 1.52363 7.26438 1.47467 7.18079 1.43371C7.16901 1.42793 7.15721 1.42215 7.14537 1.41647C7.10345 1.40107 7.0612 1.38652 7.01822 1.37435C6.95329 1.35597 6.88795 1.34074 6.82184 1.32856ZM6.68111 0.000474297C6.67121 9.07025e-05 6.66126 -6.17085e-05 6.65126 2.25124e-05C6.64189 -5.63325e-05 6.63257 7.22093e-05 6.6233 0.000403667C5.9552 0.0130009 5.32482 0.275199 4.84121 0.734694C4.50096 1.05798 4.26959 1.47401 4.15127 1.92164H1.08707H0.663243C0.302053 1.92164 0.000639293 2.22201 0.000639293 2.58195C0.000639293 2.94189 0.302053 3.24227 0.663243 3.24227H4.1462C4.25815 3.64835 4.47266 4.02594 4.75538 4.34093C5.20555 4.84249 5.85625 5.10921 6.51923 5.15947C7.19977 5.21107 7.8567 4.941 8.37 4.51193C8.76582 4.18109 9.01694 3.7294 9.14615 3.24227H10.9116H15.4407H18.9548H19.3374C19.6986 3.24227 20 2.94189 20 2.58195C20 2.22201 19.6986 1.92164 19.3374 1.92164H17.0942H12.5651H9.15647C9.14869 1.89248 9.14045 1.86358 9.13178 1.83499C9.02664 1.48804 8.84942 1.19838 8.62721 0.916611C8.21114 0.388995 7.56655 0.100367 6.91291 0.017568C6.83576 0.00780565 6.75872 0.00215702 6.68111 0.000474297ZM13.7556 8.73776C13.8127 8.73824 13.8695 8.74086 13.9262 8.74567C13.9923 8.75786 14.0576 8.77308 14.1226 8.79146C14.1656 8.80363 14.2078 8.81818 14.2497 8.83358L14.2851 8.85082C14.3687 8.89178 14.4481 8.94074 14.5248 8.99326L14.53 8.99683L14.5373 9.00293C14.5767 9.03585 14.6139 9.07125 14.6506 9.10719C14.6799 9.13596 14.7076 9.16631 14.735 9.19685L14.7491 9.21306L14.7616 9.22765C14.8167 9.3049 14.8645 9.3871 14.9078 9.47137C14.9134 9.48221 14.921 9.49882 14.9284 9.51508C14.939 9.54424 14.9487 9.57368 14.9582 9.6032C14.9816 9.67593 14.9992 9.75032 15.0129 9.82541C15.0226 9.94039 15.0227 10.0553 15.0131 10.1703C15.0009 10.2358 14.9857 10.3005 14.9674 10.3648C14.9551 10.4077 14.9405 10.4498 14.9251 10.4916L14.908 10.5263L14.9078 10.5268C14.8667 10.6101 14.8176 10.6892 14.7649 10.7656L14.7613 10.7708L14.7552 10.7781C14.7221 10.8174 14.6866 10.8545 14.6505 10.891C14.6217 10.9202 14.5912 10.9478 14.5606 10.9751L14.5542 10.9807L14.5296 11.0017C14.4521 11.0565 14.3696 11.1042 14.2851 11.1473C14.2742 11.1529 14.2576 11.1605 14.2412 11.1679C14.212 11.1784 14.1824 11.1881 14.1528 11.1976C14.0799 11.2208 14.0052 11.2384 13.9299 11.252C13.8145 11.2618 13.6992 11.2619 13.5838 11.2522C13.5181 11.2401 13.4531 11.225 13.3886 11.2067C13.3456 11.1945 13.3033 11.18 13.2614 11.1645L13.2266 11.1476L13.226 11.1473C13.1424 11.1064 13.063 11.0574 12.9864 11.0049L12.9811 11.0013L12.9739 10.9952C12.9345 10.9623 12.8972 10.9269 12.8606 10.891C12.8313 10.8622 12.8036 10.8318 12.7762 10.8013C12.7672 10.7911 12.7583 10.7808 12.7495 10.7705C12.6945 10.6932 12.6467 10.611 12.6033 10.5268C12.5978 10.516 12.5901 10.4993 12.5827 10.4831C12.5722 10.4539 12.5624 10.4245 12.5529 10.395C12.5296 10.3223 12.512 10.2479 12.4983 10.1728C12.4885 10.0578 12.4884 9.9429 12.4981 9.8279C12.5102 9.76242 12.5255 9.69769 12.5438 9.63336C12.556 9.59052 12.5706 9.5484 12.5861 9.50662L12.6033 9.47143L12.6033 9.47135C12.6445 9.38808 12.6936 9.30894 12.7463 9.23253L12.7499 9.22733L12.756 9.22008C12.789 9.18081 12.8245 9.14369 12.8606 9.10716C12.8895 9.07794 12.9199 9.05035 12.9506 9.02304C12.9608 9.01404 12.9712 9.00514 12.9816 8.99637C13.0591 8.94154 13.1415 8.89391 13.226 8.85079C13.2369 8.84525 13.2535 8.83761 13.2698 8.83031C13.2991 8.81977 13.3286 8.81001 13.3583 8.80056C13.4316 8.77719 13.5065 8.7596 13.5821 8.74592C13.6398 8.74095 13.6975 8.73825 13.7556 8.73776ZM13.7277 7.41751C13.7369 7.41718 13.7462 7.41705 13.7556 7.41713L13.7854 7.41758C13.863 7.41926 13.9401 7.42491 14.0172 7.43468C14.6709 7.51748 15.3155 7.80611 15.7315 8.33372C15.9537 8.61551 16.131 8.90515 16.2361 9.2521C16.2448 9.28069 16.253 9.3096 16.2608 9.33876H19.3375C19.6987 9.33876 20.0001 9.63914 20.0001 9.99908C20.0001 10.359 19.6987 10.6594 19.3375 10.6594H19.2068H16.2505C16.1212 11.1465 15.8701 11.5982 15.4743 11.929C14.961 12.3581 14.3041 12.6282 13.6235 12.5766C12.9606 12.5263 12.3099 12.2596 11.8597 11.758C11.577 11.4431 11.3625 11.0655 11.2505 10.6594H11.0927H7.34505H2.84531H0.663243C0.302053 10.6594 0.000639293 10.359 0.000639293 9.99908C0.000639293 9.63914 0.302053 9.33876 0.663243 9.33876H1.29601H5.04367H9.5434H11.2556C11.3739 8.89113 11.6053 8.47509 11.9455 8.1518C12.4291 7.6923 13.0595 7.4301 13.7277 7.41751ZM2.76254 16.1628C2.7058 16.158 2.64898 16.1554 2.59179 16.1549C2.53375 16.1554 2.47609 16.1581 2.4185 16.163C2.34282 16.1767 2.26784 16.1943 2.19453 16.2177C2.1649 16.2271 2.13534 16.2369 2.10607 16.2474C2.08976 16.2547 2.07312 16.2624 2.06225 16.2679C1.97768 16.3111 1.8952 16.3587 1.81768 16.4136C1.80728 16.4223 1.79699 16.4312 1.78677 16.4401C1.75612 16.4675 1.72567 16.495 1.6968 16.5243C1.66073 16.5608 1.62521 16.5979 1.59218 16.6372L1.58606 16.6444L1.58248 16.6496C1.52977 16.726 1.48065 16.8052 1.43954 16.8884L1.42224 16.9237C1.40679 16.9655 1.39219 17.0076 1.37998 17.0504C1.36163 17.1148 1.34641 17.1796 1.33422 17.2451C1.32459 17.3601 1.32467 17.4749 1.33445 17.5899C1.34814 17.665 1.36575 17.7393 1.38911 17.812C1.39859 17.8416 1.40838 17.8711 1.41897 17.9003C1.42629 17.9165 1.43396 17.9331 1.43952 17.9439C1.48278 18.0281 1.53058 18.1102 1.58559 18.1874C1.5944 18.1978 1.60332 18.2082 1.61236 18.2184C1.63977 18.2489 1.66745 18.2793 1.69677 18.308C1.73343 18.344 1.77068 18.3794 1.81008 18.4123L1.81735 18.4184L1.82257 18.422C1.89925 18.4745 1.97866 18.5234 2.06222 18.5644L2.06229 18.5644L2.09761 18.5816C2.13954 18.597 2.1818 18.6116 2.2248 18.6238C2.28935 18.642 2.3543 18.6572 2.42001 18.6693C2.53539 18.6789 2.6507 18.6789 2.76608 18.6691C2.84142 18.6555 2.91606 18.6379 2.98904 18.6146C3.01865 18.6052 3.0482 18.5955 3.07745 18.5849C3.09377 18.5776 3.11044 18.57 3.12132 18.5644C3.20589 18.5212 3.28838 18.4736 3.3659 18.4187C3.37629 18.41 3.38659 18.4011 3.3968 18.3922C3.42745 18.3649 3.4579 18.3373 3.48675 18.3081C3.52281 18.2716 3.55831 18.2344 3.59137 18.1952L3.59749 18.1879L3.60107 18.1827C3.65377 18.1063 3.7029 18.0272 3.744 17.9439L3.7613 17.9086C3.77676 17.8668 3.79136 17.8247 3.80357 17.7819C3.82191 17.7176 3.83712 17.6528 3.84931 17.5873C3.85894 17.4723 3.85886 17.3574 3.84908 17.2423C3.83539 17.1673 3.81778 17.093 3.79443 17.0203C3.78495 16.9907 3.77516 16.9612 3.76458 16.932C3.75726 16.9158 3.74959 16.8993 3.74403 16.8885C3.70076 16.8043 3.65296 16.7221 3.59795 16.6449C3.58914 16.6345 3.58022 16.6242 3.57118 16.614C3.54378 16.5834 3.51609 16.5531 3.48677 16.5243C3.45014 16.4883 3.41289 16.453 3.37349 16.42L3.36622 16.4139L3.361 16.4104C3.28432 16.3578 3.20493 16.3089 3.12135 16.2679L3.1208 16.2677L3.08599 16.2507C3.04405 16.2353 3.00178 16.2207 2.95877 16.2086C2.89387 16.1902 2.82858 16.175 2.76254 16.1628ZM2.62101 14.8347C2.61132 14.8343 2.60157 14.8342 2.59179 14.8343C2.58242 14.8342 2.5731 14.8343 2.56382 14.8346C1.89572 14.8472 1.26535 15.1094 0.781743 15.5689C0.294162 16.0322 0.0301851 16.6859 0.00202449 17.3501C-0.0265621 18.025 0.24972 18.6781 0.695912 19.1752C1.14608 19.6767 1.79678 19.9434 2.45976 19.9937C3.1403 20.0453 3.79723 19.7752 4.31053 19.3461C4.70634 19.0153 4.95747 18.5636 5.08668 18.0765H6.30523H10.3562H14.9949H18.4927H19.3373C19.6985 18.0765 19.9999 17.7762 19.9999 17.4162C19.9999 17.0562 19.6985 16.7559 19.3373 16.7559H17.6028H13.5519H8.91314H5.41538H5.09701C5.08922 16.7267 5.08098 16.6978 5.07231 16.6692C4.96717 16.3223 4.78995 16.0326 4.56774 15.7508C4.15167 15.2232 3.50708 14.9346 2.85344 14.8518C2.77608 14.842 2.69883 14.8363 2.62101 14.8347Z" fill="black" fill-opacity="0.58"/>
</svg>
